<svg width="25" height="21" viewBox="0 0 25 21" fill="none" xmlns="http://www.w3.org/2000/svg">
<path d="M24.9523 2.41984C24.0166 2.83117 23.0256 3.10282 22.0109 3.22609C23.0805 2.58413 23.8812 1.57635 24.2648 0.389368C23.2532 0.976089 22.1521 1.39282 21.0055 1.62296C20.2344 0.799101 19.213 0.252747 18.0997 0.0686636C16.9864 -0.115419 15.8435 0.0730617 14.8483 0.604864C13.8531 1.13667 13.0612 1.98206 12.5955 3.00988C12.1298 4.03769 12.0163 5.19048 12.2727 6.28937C8.0125 6.09015 4.23594 4.04327 1.71016 0.951087C1.25037 1.73303 1.0099 2.62446 1.01406 3.53156C1.01344 4.37481 1.22105 5.20517 1.61847 5.94889C2.01589 6.69262 2.59081 7.32671 3.29219 7.79484C2.47939 7.77027 1.6843 7.5514 0.973437 7.15656V7.21827C0.973189 8.40189 1.3822 9.54918 2.13114 10.4657C2.88008 11.3822 3.92288 12.0116 5.08281 12.2472C4.64343 12.3646 4.19073 12.4247 3.73594 12.4261C3.40703 12.4261 3.09297 12.3941 2.77969 12.3362C3.10979 13.3548 3.74922 14.2451 4.60899 14.8832C5.46876 15.5213 6.50608 15.8754 7.57656 15.8964C5.76282 17.3168 3.52483 18.0874 1.22109 18.0847C0.813051 18.0863 0.405282 18.0633 0 18.0159C2.35007 19.5218 5.0831 20.3211 7.87422 20.3191C17.3016 20.3191 22.4531 12.5105 22.4531 5.74796C22.4531 5.53234 22.4531 5.31281 22.4367 5.09249C23.4444 4.37026 24.3129 3.47136 25 2.43937L24.9523 2.41984Z" fill="#1DA1F2"/>
</svg>
