<svg width="34" height="26" viewBox="0 0 34 26" fill="none" xmlns="http://www.w3.org/2000/svg">
<path d="M2.00002 25.6667H32C32.3038 25.6657 32.6015 25.5819 32.8612 25.4244C33.1208 25.2668 33.3326 25.0414 33.4737 24.7724C33.6148 24.5034 33.6798 24.2011 33.6619 23.8979C33.6439 23.5946 33.5436 23.3021 33.3717 23.0517L18.3717 1.38499C17.75 0.486659 16.2534 0.486659 15.63 1.38499L0.63002 23.0517C0.456395 23.3016 0.354577 23.5943 0.335629 23.898C0.316681 24.2017 0.381327 24.5048 0.522544 24.7743C0.66376 25.0439 0.876147 25.2696 1.13663 25.4269C1.39711 25.5842 1.69572 25.6671 2.00002 25.6667Z" fill="#FF3232"/>
</svg>
