<svg width="21" height="21" viewBox="0 0 21 21" fill="none" xmlns="http://www.w3.org/2000/svg">
<path d="M10.4972 6.99838C8.56916 6.99838 6.99575 8.57179 6.99575 10.4998C6.99575 12.4278 8.56916 14.0012 10.4972 14.0012C12.4252 14.0012 13.9986 12.4278 13.9986 10.4998C13.9986 8.57179 12.4252 6.99838 10.4972 6.99838ZM20.9988 10.4998C20.9988 9.04985 21.012 7.61303 20.9305 6.16571C20.8491 4.4846 20.4656 2.99262 19.2363 1.76331C18.0044 0.53138 16.515 0.150505 14.8339 0.0690761C13.3839 -0.0123524 11.9471 0.000781304 10.4998 0.000781304C9.04985 0.000781304 7.61303 -0.0123524 6.16571 0.0690761C4.4846 0.150505 2.99262 0.534006 1.76331 1.76331C0.53138 2.99525 0.150505 4.4846 0.0690761 6.16571C-0.0123524 7.61566 0.000781304 9.05248 0.000781304 10.4998C0.000781304 11.9471 -0.0123524 13.3866 0.0690761 14.8339C0.150505 16.515 0.534007 18.007 1.76331 19.2363C2.99525 20.4682 4.4846 20.8491 6.16571 20.9305C7.61566 21.012 9.05248 20.9988 10.4998 20.9988C11.9498 20.9988 13.3866 21.012 14.8339 20.9305C16.515 20.8491 18.007 20.4656 19.2363 19.2363C20.4682 18.0044 20.8491 16.515 20.9305 14.8339C21.0146 13.3866 20.9988 11.9498 20.9988 10.4998ZM10.4972 15.8872C7.51584 15.8872 5.10976 13.4811 5.10976 10.4998C5.10976 7.51847 7.51584 5.11239 10.4972 5.11239C13.4785 5.11239 15.8846 7.51847 15.8846 10.4998C15.8846 13.4811 13.4785 15.8872 10.4972 15.8872ZM16.1052 6.14995C15.4092 6.14995 14.847 5.58783 14.847 4.89174C14.847 4.19566 15.4092 3.63354 16.1052 3.63354C16.8013 3.63354 17.3634 4.19566 17.3634 4.89174C17.3636 5.05703 17.3312 5.22074 17.2681 5.37348C17.2049 5.52623 17.1123 5.66501 16.9954 5.78189C16.8785 5.89877 16.7397 5.99144 16.587 6.05459C16.4342 6.11775 16.2705 6.15015 16.1052 6.14995Z" fill="white"/>
</svg>
