<svg width="14" height="182" viewBox="0 0 14 182" fill="none" xmlns="http://www.w3.org/2000/svg">
<path d="M0.63514 4.87147C0.637216 4.27414 0.732527 3.70514 0.921074 3.16446C1.10962 2.62378 1.37259 2.15335 1.70998 1.75319C2.04738 1.35303 2.43573 1.06037 2.87504 0.875233C3.07136 0.782581 3.25336 0.783214 3.42104 0.87713C3.58868 0.98038 3.69543 1.14875 3.74128 1.38225C3.77803 1.55038 3.74947 1.71361 3.65558 1.87195C3.571 2.03966 3.4399 2.1652 3.26227 2.24859C3.02855 2.35978 2.81325 2.54103 2.61638 2.79235C2.41947 3.053 2.25972 3.36511 2.13712 3.72869C2.01452 4.09226 1.95253 4.47472 1.95113 4.87605C1.94958 5.32404 2.01815 5.73495 2.15685 6.10877C2.29552 6.49192 2.49511 6.80062 2.75564 7.03486C3.02549 7.26913 3.35642 7.38695 3.74841 7.38831C4.24308 7.39003 4.68709 7.19557 5.08045 6.80493C5.47378 6.42363 5.71865 5.78981 5.81506 4.90347C5.93108 3.74654 6.27491 2.83773 6.84654 2.17704C7.41817 1.51636 8.12399 1.18748 8.96398 1.19039C9.57998 1.19254 10.102 1.36702 10.5302 1.71384C10.9583 2.06066 11.2833 2.52846 11.5053 3.11724C11.7272 3.71535 11.8369 4.3784 11.8344 5.10639C11.8314 5.95572 11.6564 6.65045 11.3091 7.19058C10.9619 7.73071 10.503 8.17712 9.93248 8.52981C9.7267 8.65976 9.53052 8.71041 9.34395 8.68176C9.16668 8.66248 9.02699 8.57333 8.92488 8.4143C8.8135 8.23658 8.79083 8.04517 8.85687 7.84006C8.92292 7.63496 9.04479 7.48138 9.22248 7.37933C9.62462 7.14739 9.93834 6.84515 10.1636 6.4726C10.3889 6.10938 10.5072 5.63845 10.5185 5.05982C10.5303 4.36919 10.4016 3.79007 10.1326 3.32247C9.87287 2.8549 9.46768 2.62015 8.91702 2.61824C8.63702 2.61727 8.36611 2.68633 8.1043 2.82542C7.85178 2.97387 7.63152 3.23911 7.44353 3.62113C7.2555 4.01247 7.12289 4.57202 7.04569 5.29975C6.92983 6.41002 6.58617 7.27217 6.0147 7.88619C5.45253 8.50957 4.70944 8.81966 3.78545 8.81644C3.25345 8.8146 2.79185 8.70099 2.40063 8.47563C2.00937 8.2596 1.67906 7.96445 1.4097 7.59018C1.14963 7.22528 0.955091 6.8046 0.826079 6.32815C0.697035 5.86103 0.633389 5.37547 0.63514 4.87147ZM0.68613 14.3704C0.688725 13.6237 0.859043 12.957 1.19708 12.3701C1.54443 11.7927 2.00801 11.337 2.58784 11.003C3.17698 10.6783 3.84021 10.5173 4.57754 10.5199C5.33353 10.5225 6.00496 10.6882 6.59182 11.0169C7.17868 11.3456 7.63446 11.7952 7.95914 12.3656C8.29316 12.9361 8.45889 13.5901 8.45633 14.3274C8.4525 15.4287 8.02932 16.3419 7.1868 17.067C7.03701 17.1971 6.88285 17.2433 6.72432 17.2054C6.56578 17.1675 6.42614 17.0643 6.30539 16.8959C6.21251 16.7649 6.18035 16.6202 6.2089 16.4616C6.24678 16.303 6.33128 16.1587 6.4624 16.0285C6.94932 15.5728 7.19397 15.0043 7.19633 14.323C7.19883 13.6043 6.95819 13.0202 6.47442 12.5705C5.99998 12.1208 5.3661 11.8946 4.57277 11.8919C4.06877 11.8901 3.62042 11.9912 3.2277 12.1952C2.83496 12.4085 2.52127 12.7014 2.28665 13.0739C2.06135 13.4465 1.94784 13.8801 1.94612 14.3748C1.94392 15.0094 2.10547 15.5233 2.43077 15.9165C2.55158 16.0662 2.61638 16.2204 2.62516 16.3791C2.64328 16.5379 2.60079 16.6777 2.4977 16.7987C2.36649 16.9569 2.21684 17.045 2.04878 17.0631C1.89005 17.0812 1.74558 17.0247 1.61537 16.8936C0.992373 16.2195 0.682627 15.3784 0.68613 14.3704ZM0.722543 20.0067C0.724165 19.5401 0.958308 19.3076 1.42497 19.3092L7.68293 19.3309C8.1496 19.3325 8.38212 19.5667 8.3805 20.0334C8.37888 20.5 8.14473 20.7325 7.67807 20.7309L7.41207 20.73C7.73776 21.0111 7.99324 21.3527 8.17851 21.7547C8.36375 22.166 8.45555 22.6096 8.45389 23.0856C8.45194 23.6456 8.35717 24.0606 8.16956 24.3306C7.99126 24.61 7.77622 24.7166 7.52445 24.6504C7.32861 24.6031 7.19827 24.5093 7.13342 24.369C7.07791 24.2289 7.06914 24.0655 7.10713 23.879C7.23053 23.282 7.24173 22.7454 7.14072 22.2691C7.03971 21.7927 6.84969 21.414 6.57066 21.1331C6.29161 20.8614 5.93741 20.7249 5.50808 20.7234L1.42011 20.7092C0.953443 20.7076 0.720921 20.4734 0.722543 20.0067ZM0.635197 29.0265C0.637825 28.2705 0.803476 27.6038 1.13215 27.0263C1.47016 26.4488 1.92908 25.993 2.50891 25.659C3.09804 25.3344 3.77061 25.1734 4.5266 25.176C5.29193 25.1787 5.96336 25.3444 6.54089 25.673C7.12772 26.0111 7.58346 26.47 7.90811 27.0498C8.2421 27.6296 8.40778 28.2975 8.40515 29.0535C8.40256 29.8002 8.23225 30.4623 7.89425 31.0398C7.56557 31.6173 7.10667 32.0684 6.51753 32.393C5.9377 32.727 5.26512 32.8927 4.49979 32.89C3.7438 32.8874 3.07237 32.7217 2.48551 32.393C1.90798 32.0643 1.45222 31.6101 1.11824 31.0302C0.793583 30.4504 0.63257 29.7825 0.635197 29.0265ZM1.89519 29.0309C1.8935 29.5163 2.00401 29.946 2.22671 30.3201C2.44941 30.6942 2.75641 30.9846 3.14769 31.1913C3.53894 31.4073 3.99123 31.5162 4.50456 31.518C5.01789 31.5198 5.47093 31.414 5.86367 31.2007C6.26572 30.9968 6.57939 30.7085 6.80468 30.336C7.02998 29.9634 7.14347 29.5345 7.14516 29.0492C7.14685 28.5638 7.03634 28.1341 6.81364 27.76C6.59094 27.3859 6.27929 27.0908 5.87871 26.8748C5.48746 26.6587 5.03516 26.5498 4.52183 26.548C4.0085 26.5462 3.55547 26.652 3.16272 26.8653C2.76998 27.0786 2.46096 27.3715 2.23566 27.7441C2.01037 28.1166 1.89688 28.5456 1.89519 29.0309ZM0.664107 36.822C0.665534 36.4113 0.778799 36.0477 1.0039 35.7311C1.229 35.4146 1.53319 35.1683 1.91647 34.9923C2.30909 34.8163 2.75739 34.7292 3.26139 34.731L10.9053 34.7575C11.1107 34.7582 11.2784 34.8242 11.4087 34.9553C11.5389 35.0864 11.6036 35.2546 11.6029 35.46C11.6022 35.6653 11.5363 35.8331 11.4052 35.9633C11.274 36.0935 11.1058 36.1582 10.9005 36.1575L3.25652 36.131C2.91119 36.1298 2.6263 36.1941 2.40185 36.324C2.1774 36.4539 2.06481 36.6215 2.0641 36.8268L2.06288 37.1768C2.06223 37.3635 1.99638 37.5126 1.86533 37.6241C1.73424 37.745 1.56603 37.8051 1.3607 37.8044C1.15537 37.8037 0.987674 37.7144 0.857625 37.5366C0.727575 37.3588 0.663037 37.13 0.66401 36.85L0.664107 36.822ZM0.649521 41.0192C0.650948 40.6085 0.764212 40.2449 0.989314 39.9284C1.21442 39.6118 1.51861 39.3655 1.90189 39.1895C2.2945 39.0136 2.74281 38.9265 3.2468 38.9282L10.8908 38.9548C11.0961 38.9555 11.2639 39.0214 11.3941 39.1525C11.5243 39.2836 11.589 39.4519 11.5883 39.6572C11.5876 39.8625 11.5217 40.0303 11.3906 40.1605C11.2595 40.2907 11.0912 40.3555 10.8859 40.3548L3.24194 40.3282C2.89661 40.327 2.61171 40.3913 2.38726 40.5212C2.16281 40.6511 2.05023 40.8187 2.04951 41.0241L2.0483 41.3741C2.04765 41.5607 1.9818 41.7098 1.85074 41.8214C1.71965 41.9423 1.55144 42.0023 1.34611 42.0016C1.14078 42.0009 0.973088 41.9117 0.843039 41.7339C0.712989 41.5561 0.648451 41.3272 0.649424 41.0472L0.649521 41.0192ZM0.558941 50.9698C0.56147 50.2418 0.731756 49.5844 1.0698 48.9975C1.41714 48.4201 1.88541 47.9597 2.47461 47.6164C3.06377 47.2825 3.72702 47.1168 4.46435 47.1193C5.20167 47.1219 5.85914 47.2782 6.43673 47.5882C7.02362 47.9075 7.48413 48.3385 7.81824 48.881C8.16169 49.4235 8.33223 50.0354 8.32987 50.7168C8.32795 51.2674 8.20952 51.7757 7.97457 52.2415C7.74895 52.7074 7.43959 53.0984 7.04648 53.4143L10.8265 53.4275C11.0411 53.4282 11.2136 53.4941 11.3438 53.6253C11.474 53.7657 11.5387 53.9386 11.538 54.1439C11.5372 54.3586 11.4713 54.531 11.3402 54.6613C11.2091 54.7915 11.0362 54.8562 10.8215 54.8555L4.43754 54.8333C3.70021 54.8307 3.03815 54.6557 2.45135 54.3084C1.86452 53.9703 1.39945 53.5114 1.05613 52.9315C0.722139 52.3517 0.556411 51.6978 0.558941 50.9698ZM1.81893 50.9741C1.81728 51.4501 1.9278 51.8752 2.1505 52.2493C2.38254 52.6234 2.69885 52.9186 3.09943 53.1346C3.50002 53.3507 3.94764 53.4596 4.44231 53.4613C4.9463 53.463 5.39467 53.3573 5.78742 53.144C6.18016 52.9306 6.48918 52.6377 6.71448 52.2652C6.94911 51.8926 7.06725 51.4684 7.0689 50.9924C7.07052 50.5257 6.95533 50.1007 6.72333 49.7172C6.50063 49.3431 6.19367 49.0433 5.80245 48.818C5.4112 48.602 4.96357 48.4931 4.45958 48.4913C3.96491 48.4896 3.51654 48.5954 3.11447 48.8086C2.71236 49.0312 2.39399 49.3288 2.15936 49.7013C1.93403 50.0832 1.82055 50.5075 1.81893 50.9741ZM0.524732 60.8135C0.527359 60.0575 0.693011 59.3907 1.02169 58.8132C1.3597 58.2357 1.81862 57.7799 2.39845 57.446C2.98758 57.1213 3.66014 56.9603 4.41614 56.963C5.18147 56.9656 5.85289 57.1313 6.43042 57.46C7.01725 57.798 7.47299 58.2569 7.79765 58.8367C8.13163 59.4166 8.29731 60.0845 8.29469 60.8405C8.29209 61.5871 8.12179 62.2492 7.78378 62.8267C7.4551 63.4042 6.9962 63.8553 6.40707 64.1799C5.82724 64.5139 5.15466 64.6796 4.38933 64.6769C3.63333 64.6743 2.96191 64.5086 2.37504 64.1799C1.79752 63.8512 1.34176 63.397 1.00777 62.8172C0.683118 62.2374 0.522105 61.5695 0.524732 60.8135ZM1.78472 60.8178C1.78304 61.3032 1.89355 61.7329 2.11625 62.107C2.33895 62.4811 2.64594 62.7715 3.03722 62.9782C3.42848 63.1942 3.88077 63.3031 4.3941 63.3049C4.90743 63.3067 5.36046 63.2009 5.75321 62.9876C6.15525 62.7837 6.46892 62.4955 6.69422 62.1229C6.91951 61.7504 7.03301 61.3214 7.03469 60.8361C7.03638 60.3508 6.92587 59.921 6.70317 59.5469C6.48047 59.1728 6.16883 58.8777 5.76824 58.6617C5.37699 58.4456 4.9247 58.3367 4.41137 58.335C3.89804 58.3332 3.445 58.4389 3.05226 58.6522C2.65951 58.8655 2.35049 59.1585 2.1252 59.531C1.8999 59.9036 1.78641 60.3325 1.78472 60.8178ZM0.555309 68.129C0.555828 67.9797 0.598314 67.8399 0.682768 67.7095C0.776522 67.5885 0.888814 67.5049 1.01964 67.4587L7.24281 65.4083C7.5324 65.3346 7.76573 65.3354 7.9428 65.4107C8.12917 65.4954 8.22189 65.673 8.22095 65.9437C8.22033 66.121 8.1685 66.2655 8.06544 66.3771C7.97169 66.4981 7.80802 66.5956 7.57442 66.6694L2.8512 68.165L7.67621 69.6098C7.83471 69.657 7.96043 69.7368 8.05338 69.8491C8.15565 69.9615 8.20645 70.1156 8.20577 70.3116C8.20512 70.4983 8.15327 70.6475 8.05021 70.7591C7.95646 70.8801 7.83019 70.959 7.67139 70.9958L2.73904 72.2387L7.54966 73.7954C7.97854 73.9275 8.19236 74.171 8.19113 74.5256C8.19022 74.787 8.09627 74.964 7.90928 75.0566C7.73162 75.1494 7.49831 75.1439 7.20933 75.0402L1.00057 72.9466C0.870034 72.9088 0.75831 72.8291 0.665399 72.7075C0.581821 72.5858 0.540308 72.4457 0.540859 72.287C0.541378 72.1377 0.583865 71.9978 0.668318 71.8675C0.762105 71.7371 0.874396 71.6535 1.00519 71.6166L6.09193 70.2623L1.01497 68.8026C0.884435 68.7649 0.772728 68.6805 0.679849 68.5495C0.596271 68.4279 0.554758 68.2877 0.555309 68.129ZM0.509562 77.2645C0.510275 77.0592 0.576208 76.8867 0.707361 76.7472C0.847814 76.617 1.02071 76.5523 1.22604 76.553L7.47 76.5747C7.68467 76.5754 7.85711 76.6414 7.98732 76.7725C8.1175 76.9129 8.18223 77.0858 8.18152 77.2912C8.18077 77.5058 8.11484 77.6783 7.98372 77.8085C7.8526 77.9387 7.6797 78.0034 7.46504 78.0027L7.31104 78.0021C7.59937 78.2925 7.82682 78.6433 7.99339 79.0545C8.15996 79.4658 8.24242 79.9094 8.24076 80.3854C8.23853 81.0294 8.09653 81.6029 7.81478 82.1059C7.54233 82.6183 7.13961 83.0182 6.6066 83.3057C6.07357 83.6025 5.41972 83.7496 4.64506 83.7469L1.20108 83.7349C0.995748 83.7342 0.823326 83.6636 0.683813 83.5231C0.553601 83.392 0.488852 83.2238 0.489566 83.0185C0.490279 82.8131 0.556212 82.6407 0.687365 82.5011C0.827818 82.371 1.00071 82.3062 1.20604 82.3069L4.65002 82.3189C5.44335 82.3217 6.02276 82.109 6.38825 81.6809C6.76304 81.2622 6.95154 80.7356 6.95374 80.1009C6.95511 79.7089 6.87701 79.354 6.71944 79.0361C6.56188 78.7182 6.34809 78.4655 6.07807 78.2778C5.81739 78.0903 5.51438 77.9959 5.16905 77.9947L1.22108 77.981C1.01574 77.9803 0.843305 77.9143 0.70376 77.7832C0.573549 77.652 0.508816 77.4792 0.509562 77.2645Z" fill="#FF3232"/>
<rect x="7.448" y="99.0237" width="82.9496" height="3" transform="rotate(90.1991 7.448 99.0237)" fill="#FF3232"/>
</svg>
