<svg width="21" height="17" viewBox="0 0 21 17" fill="none" xmlns="http://www.w3.org/2000/svg">
<path d="M6.84197 16.3839C14.2716 16.3839 18.3346 10.2287 18.3346 4.89137C18.3346 4.71655 18.3309 4.54245 18.3231 4.36932C19.1117 3.79912 19.7971 3.08756 20.338 2.27765C19.6143 2.59947 18.8353 2.81583 18.0184 2.91371C18.8523 2.41346 19.4925 1.62244 19.7945 0.679486C19.0141 1.14218 18.1497 1.47833 17.2297 1.65989C16.4926 0.874772 15.4431 0.383789 14.2811 0.383789C12.0506 0.383789 10.2416 2.19265 10.2416 4.42242C10.2416 4.73954 10.2772 5.04776 10.3464 5.34346C6.98934 5.17454 4.01238 3.56735 2.0204 1.12327C1.67365 1.72009 1.47355 2.41358 1.47355 3.15354C1.47355 4.55473 2.18667 5.79206 3.27097 6.51565C2.6083 6.49531 1.98584 6.31339 1.44165 6.01058C1.44104 6.02756 1.44104 6.04406 1.44104 6.06212C1.44104 8.01834 2.83332 9.65166 4.68179 10.0218C4.34227 10.1141 3.98505 10.1638 3.61663 10.1638C3.35681 10.1638 3.1035 10.1383 2.8574 10.091C3.37162 11.6959 4.86287 12.8638 6.63079 12.8965C5.24827 13.9801 3.50671 14.6255 1.61393 14.6255C1.28838 14.6255 0.966555 14.6069 0.650391 14.5696C2.43806 15.7154 4.56079 16.3841 6.84209 16.3841" fill="white"/>
</svg>
