<svg width="25" height="18" viewBox="0 0 25 18" fill="none" xmlns="http://www.w3.org/2000/svg">
<path d="M9.74919 12.5306L15.9479 8.94754L9.74919 5.36446V12.5306ZM23.556 3.17879C23.7112 3.74014 23.8187 4.49258 23.8904 5.44807C23.974 6.40355 24.0098 7.22766 24.0098 7.94428L24.0815 8.94754C24.0815 11.5632 23.8904 13.4861 23.556 14.7163C23.2574 15.7912 22.5646 16.4839 21.4897 16.7825C20.9284 16.9378 19.9012 17.0453 18.3247 17.1169C16.772 17.2005 15.3507 17.2364 14.0369 17.2364L12.1379 17.308C7.13355 17.308 4.01628 17.1169 2.78609 16.7825C1.71117 16.4839 1.01844 15.7912 0.719853 14.7163C0.564587 14.1549 0.457095 13.4025 0.385433 12.447C0.301828 11.4915 0.265997 10.6674 0.265997 9.9508L0.194336 8.94754C0.194336 6.33189 0.385433 4.40898 0.719853 3.17879C1.01844 2.10387 1.71117 1.41114 2.78609 1.11255C3.34744 0.957287 4.37459 0.849795 5.95114 0.778133C7.5038 0.694528 8.92509 0.658697 10.2389 0.658697L12.1379 0.587036C17.1423 0.587036 20.2595 0.778133 21.4897 1.11255C22.5646 1.41114 23.2574 2.10387 23.556 3.17879Z" fill="white"/>
</svg>
